<svg id="visual" viewBox="0 0 900 600" width="900" height="600" xmlns="http://www.w3.org/2000/svg" xmlns:xlink="http://www.w3.org/1999/xlink" version="1.1"><rect x="0" y="0" width="900" height="600" fill="#FFFFFF"></rect><path d="M0 481L16.7 479C33.3 477 66.7 473 100 462.8C133.3 452.7 166.7 436.3 200 426.5C233.3 416.7 266.7 413.3 300 415.5C333.3 417.7 366.7 425.3 400 430.5C433.3 435.7 466.7 438.3 500 436C533.3 433.7 566.7 426.3 600 422.5C633.3 418.7 666.7 418.3 700 426.8C733.3 435.3 766.7 452.7 800 453.2C833.3 453.7 866.7 437.3 883.3 429.2L900 421L900 601L883.3 601C866.7 601 833.3 601 800 601C766.7 601 733.3 601 700 601C666.7 601 633.3 601 600 601C566.7 601 533.3 601 500 601C466.7 601 433.3 601 400 601C366.7 601 333.3 601 300 601C266.7 601 233.3 601 200 601C166.7 601 133.3 601 100 601C66.7 601 33.3 601 16.7 601L0 601Z" fill="#07a9df"></path><path d="M0 489L16.7 484.8C33.3 480.7 66.7 472.3 100 475.3C133.3 478.3 166.7 492.7 200 499.2C233.3 505.7 266.7 504.3 300 496.8C333.3 489.3 366.7 475.7 400 476.2C433.3 476.7 466.7 491.3 500 496.3C533.3 501.3 566.7 496.7 600 491.5C633.3 486.3 666.7 480.7 700 474.7C733.3 468.7 766.7 462.3 800 459C833.3 455.7 866.7 455.3 883.3 455.2L900 455L900 601L883.3 601C866.7 601 833.3 601 800 601C766.7 601 733.3 601 700 601C666.7 601 633.3 601 600 601C566.7 601 533.3 601 500 601C466.7 601 433.3 601 400 601C366.7 601 333.3 601 300 601C266.7 601 233.3 601 200 601C166.7 601 133.3 601 100 601C66.7 601 33.3 601 16.7 601L0 601Z" fill="#1582b7"></path><path d="M0 503L16.7 504.5C33.3 506 66.7 509 100 514.5C133.3 520 166.7 528 200 529.3C233.3 530.7 266.7 525.3 300 517.8C333.3 510.3 366.7 500.7 400 494.8C433.3 489 466.7 487 500 496C533.3 505 566.7 525 600 534.7C633.3 544.3 666.7 543.7 700 538.7C733.3 533.7 766.7 524.3 800 518C833.3 511.7 866.7 508.3 883.3 506.7L900 505L900 601L883.3 601C866.7 601 833.3 601 800 601C766.7 601 733.3 601 700 601C666.7 601 633.3 601 600 601C566.7 601 533.3 601 500 601C466.7 601 433.3 601 400 601C366.7 601 333.3 601 300 601C266.7 601 233.3 601 200 601C166.7 601 133.3 601 100 601C66.7 601 33.3 601 16.7 601L0 601Z" fill="#195d8f"></path><path d="M0 557L16.7 559.7C33.3 562.3 66.7 567.7 100 563C133.3 558.3 166.7 543.7 200 540C233.3 536.3 266.7 543.7 300 549.8C333.3 556 366.7 561 400 564.2C433.3 567.3 466.7 568.7 500 569.8C533.3 571 566.7 572 600 569.7C633.3 567.3 666.7 561.7 700 556.2C733.3 550.7 766.7 545.3 800 545.7C833.3 546 866.7 552 883.3 555L900 558L900 601L883.3 601C866.7 601 833.3 601 800 601C766.7 601 733.3 601 700 601C666.7 601 633.3 601 600 601C566.7 601 533.3 601 500 601C466.7 601 433.3 601 400 601C366.7 601 333.3 601 300 601C266.7 601 233.3 601 200 601C166.7 601 133.3 601 100 601C66.7 601 33.3 601 16.7 601L0 601Z" fill="#143b66"></path></svg>